<svg xmlns="http://www.w3.org/2000/svg" width="947.621" height="1220.46" viewBox="0 0 947.621 1220.46"><defs><style>.a{fill:#353241;}</style></defs><path class="a" d="M693.958,1140.675c-1.734,0-3.344-.124-5.077-.247-17.337-1.487-590.934-81.73-615.329-85.2a14.558,14.558,0,0,1-2.477-.62c-9.907-3.592-17.337-12.259-20.928-24.519-3.591-12.013-3.467-29.1,3.591-38.512.248-.371.619-.742.867-1.115L177.572,861.308c.743-8.669.372-17.956-.124-30.341-.991-23.405-2.229-55.354,2.848-109.841a12.651,12.651,0,0,1,3.22-7.305c30.463-33.435,88.169-91.266,121.357-115.165a12.52,12.52,0,0,1,16.47,1.61c7.8,8.3,79.749,67.488,93.99,76.9,6.192.247,14.984,11.143,19.69,14.24,45.076,29.225,81.482,46.066,130.025,35.541,49.41-10.774,102.658-20.062,158.259-20.062,18.08,0,43.218-37.645,72.69-68.851,80.12,10.773,140.923,20.433,166.928,26.5a12.606,12.606,0,0,1,9.535,10.031c10.4,58.7,5.077,99.562-9.288,158.754a11.93,11.93,0,0,1-2.105,4.582L942.12,863.165c-55.354,73.682-147.981,197.019-210.393,262.156C722.068,1135.227,708.694,1140.675,693.958,1140.675Zm111.574-164.45c-166.8-31.33-433.665-68.358-623.007-93.124-4.953,7.058-120.119,124.825-120.119,124.825,19.442,4.086,619.292,90.769,633.78,89.035,5.82-.742,12.879-2.229,18.2-5.944,7.182-5.076,67.613-89.161,83.588-105.382ZM205.558,723.48c-7.43,42.475-8.916,96.838-5.944,136.34l635.762,93,8.3-142.533-.371.123L958.343,683.358q-82.288-13-164.451-23.281c-181.168,116.156-238.256,62.66-386.608,18.451-3.591-1.114-86.684-66.993-89.9-64.64-39.132,27.366-81.606,72.195-111.326,109.592Z" transform="translate(-47.825 79.785)"/><path class="a" d="M249.9,674.223c-.99,33.31,125.2,68.107,281.969,77.518s284.694-9.907,285.684-43.217c.5-17.212-32.692-34.673-86.436-48.915-54.363,36.408-142.284,52.011-218.442,47.428-86.683-5.2-127.3-39.5-194.295-67.737-42.227,7.926-67.984,20.062-68.48,34.923" transform="translate(0.336 90.036)"/><path class="a" d="M700.576,922.614c-10.154-2.1-498.182-70.584-508.461-72.814-2.848,6.689-53.991,48.543-56.716,55.231,10.278,2.1,508.584,77.271,518.739,79.377,2.849-6.686,43.59-55.106,46.438-61.793" transform="translate(-26.953 140.207)"/><path class="a" d="M449.375,953.524c-4.582-.867-192.685-27.986-198.258-29.225-5.077,4.83-11.888,11.888-16.718,16.471,10.278,2.1,191.818,28.481,202.1,30.586,3.591-5.7,7.8-11.146,12.879-17.832" transform="translate(-3.358 157.963)"/><path class="a" d="M465.644,782.323l229.093,31.33c.371.123.743.247,1.114.372l.743.371a2.812,2.812,0,0,1,.495,3.344c-.124.124-.247.495-.372.619s-.247.248-.371.37a2.809,2.809,0,0,1-2.23.62c-101.667-9.039-133.122-13.621-229.092-31.7a1.364,1.364,0,0,1-.991,0,3.442,3.442,0,0,1-1.486-1.487,2.894,2.894,0,0,1-.248-1.486,4.464,4.464,0,0,1,.5-1.116,3.142,3.142,0,0,1,1.486-1.361,5.581,5.581,0,0,1,1.362.123" transform="translate(50.959 124.095)"/><g transform="translate(132.393 0)"><path class="a" d="M562.1,865.612c-216.709,0-395.4-169.652-406.793-386.361-5.7-108.726,31.206-213.242,104.144-294.105,72.814-80.863,172.872-128.539,281.6-134.236,226.244-11.888,416.7,161.974,428.34,385.742,5.7,108.726-31.206,213.241-104.144,294.1C792.434,811.745,692.5,859.421,583.775,865.117,576.468,865.488,569.286,865.612,562.1,865.612Zm.619-788.82c-6.687,0-13.5.124-20.309.5-101.667,5.325-195.162,49.9-263.394,125.567-68.108,75.662-102.658,173.367-97.333,275.035,11.021,209.279,188.97,371.872,400.6,360.727a378.506,378.506,0,0,0,263.27-125.567c68.108-75.662,102.658-173.367,97.333-275.035C932.366,235.547,765.314,76.792,562.723,76.792Z" transform="translate(-154.737 -50.336)"/><path class="a" d="M446.733,806.563c.619-.867,70.832-32.94,79.005-36.036,9.411-3.715,15.355-8.916,19.194-16.718,4.087-8.421,4.334-16.717.62-23.4-2.973-5.572-16.718-19.07-27.863-27.243-3.715-2.848-15.479-9.164-26.005-14.241-30.092-14.241-34.549-18.947-26.871-28.606,6.563-8.3,31.577-23.9,35.911-22.29,3.715,1.362-7.306.867-1.61-1.857,7.926-3.716-13.127-54.611.867-70.09,14.364-15.975,24.766-25.881,29.968-28.359,5.325-2.6,61.421,45.2,73.185,55.726,16.1,14.364,27.243,18.327,34.8,12.507,4.829-3.715,20.68,2.972,29.349,12.507,5.2,5.7,5.7,11.887,1.486,17.213l-3.1,3.839,25.882,20.556c14.241,11.269,28.111,22.785,30.835,25.386,4.211,4.211,6.068,5.2,12.755,6.563,16.841,3.591,37.645-7.678,39.255-21.3.868-7.925-7.058-16.346-15.974-16.841-5.821-.371-7.554-3.1-5.944-9.411,4.333-16.1,4.952-20.31,3.1-23.776,25.881-49.657-1.981-61.175-4.211-61.917-2.848-.867-41.361,35.788-45.2,39.627a32.921,32.921,0,0,1-21.3,9.907c-7.678.5-11.145-.991-17.46-7.43-6.068-6.067-7.678-8.42-6.316-9.906.5-.62,5.821-2.105,11.765-3.344,7.183-1.486,11.64-3.1,13-4.953,2.106-2.725,1.982-8.174-.123-9.907-.867-.62,2.1-5.325,10.9-16.346l12.136-15.479,1.362-7.182-10.03-5.7-60.432-9.04c-15.726,16.717-25.014,29.6-30.958,34.426-3.962,3.1-8.917,3.219-11.393,2.1-4.459-1.857-43.466-33.187-50.278-40-2.971-3.1-7.181-7.925-7.677-9.164C538,503.418,542.7,492.4,552.981,472.707c4.582-8.545,11.022-17.337,12.26-20.8,2.6-7.8,5.077-8.793,12.013-4.582,23.9,14.489,26.871,15.479,33.311,11.888,11.021-6.315,55.477,4.458,32.568-17.956-5.077-4.953-9.783-10.4-10.773-12.136-1.733-3.219-.247-7.43,4.83-13.869,2.352-3.1,3.344-3.344,7.678-2.229,2.725.743,9.907,3.838,15.975,6.811,28.605,13.993,39.874,16.1,51.885,9.287,4.954-2.724,5.326-5.2,2.106-12.383-2.229-4.706-4.706-7.182-23.652-22.785-26.377-21.671-26.253-21.547-17.957-30.34,3.221-3.591,10.9-12.012,16.966-19.07l10.9-12.631-5.572-4.334c-3.1-2.353-10.9-7.678-17.336-11.64-13.375-8.421-20.31-14.86-20.929-20.061-.495-4.334,7.8-15.727,14.242-19.318,5.076-2.849,8.668-1.115,21.175,10.03,10.03,8.916,20.06,14.117,23.776,12.384a16.529,16.529,0,0,0,5.325-4.706c3.716-4.705,5.325-4.086,17.461,6.811,10.03,9.04,10.03,9.04,12.507,6.934,2.6-2.229,21.547-21.918,23.652-24.766.991-1.362-.248-3.344-6.316-9.783-4.211-4.334-6.687-14.488-7.058-15.355-.373-1.115-1.487-3.591,6.935-8.049l8.544-10.155,11.517,6.811c1.609,1.61.372,4.83,6.44,10.155C808.2,268.01,811.3,272.1,813.281,280.394c2.848,11.516,7.429,17.708,20.679,27.986,12.26,9.535,24.519,15.727,42.723,21.3l6.935,2.229,2.972,16.718c1.361,7.677,7.059,16.1,7.926,24.767,1.609,17.337.247,32.073,2.847,50.524,1.362,9.164-9.04,22.166-7.555,30.835,2.973,17.585-4.952,61.793-10.648,79.625-9.908,30.587-26.625,60.431-43.466,88.542-4.211,7.059-9.907,22.043-20.557,34.549-12.63,15.108-30.462,28.111-37.645,35.169-15.975,15.975-29.844,35.54-47.181,48.047-18.7,13.5-40.988,19.689-62.288,29.844-13.126,6.315-30.215,20.062-47.8,25.262-29.6,8.916-61.049,10.526-93.742,13.374-14.364,1.238-47.675-.742-64.517-1.238-16.47-.743-26.624,6.315-15.232-1.362" transform="translate(-86.299 -5.155)"/><path class="a" d="M238.262,689.089c-5.7-8.668-10.525-16.717-10.525-17.708-.124-.991,3.467-8.049,7.8-15.479,20.8-35.416,24.519-43.713,27.243-60.8,1.734-11.516,1.486-19.194-1.115-26.253-1.858-5.077-3.344-6.439-23.4-23.033l-21.423-17.708-1.238-9.288c-1.734-13.25-.619-17.461,8.544-30.958l7.8-11.516,9.412,2.105c11.269,2.6,16.1.991,20.433-6.687,3.467-6.068,3.344-15.232-.248-20.556-1.362-1.981-12.755-14.365-25.386-27.491-33.064-34.426-33.064-34.178-36.779-46.066-1.857-5.7-3.22-11.516-2.848-12.879.124-1.486,4.582-8.545,9.659-15.727,5.2-7.182,9.907-14.984,10.526-17.461,1.238-4.458,1.114-4.582-5.2-9.535-3.591-2.724-10.03-8.421-14.488-12.383l-7.925-7.306,2.105-5.077c9.164-21.547,16.47-46.561,29.349-66.746,14.86-23.157,36.407-41.608,65.879-71.081,19.318-19.442,52.505-39.874,75.663-52.877,37.769-21.3,72.195-31.454,113.184-41.98,68.975-17.584,156.03-3.715,227.854,25.386,7.8,3.22,13.746,9.164,13.869,9.907.124,1.238-61.917,70.709-63.774,71.328-.5.248-4.83-.5-9.783-1.61-11.145-2.477-17.708-1.238-23.776,4.582-2.477,2.477-5.449,4.21-6.44,4.21-.99-.124-7.058-4.21-13.25-9.164-8.668-6.687-11.516-9.535-11.516-11.393,0-1.61,1.981-4.582,6.563-9.535,6.563-7.058,6.687-7.182,5.572-11.764s-1.61-4.953-23.652-21.671c-12.879-9.659-24.024-17.337-26.129-17.832-4.21-1.115-9.535,1.857-14.612,8.3-5.2,6.687-4.334,13.25,2.848,22.166,8.173,10.03,8.792,13.746,3.344,20.8a87.13,87.13,0,0,0-7.306,11.269c-1.609,3.1-3.963,7.554-5.325,9.783l-2.477,4.087-10.526-3.839c-14.364-5.2-19.07-5.449-29.6-1.857-13.127,4.458-20.309,10.4-23.4,19.194-1.982,6.068.123,8.916,15.974,20.309,17.089,12.383,17.832,13.622,15.232,26.253-2.477,11.888-10.155,22.785-19.194,27-10.278,4.829-13.746,5.077-39.751,3.591-25.014-1.362-40.246-1.238-41.608.619-.371.5-9.906,5.449-21.175,11.269-24.148,12.136-30.711,16.841-35.788,25.386-3.467,5.82-3.467,6.811-1.238,21.423,4.458,29.349.991,36.407-16.346,33.064-8.668-1.734-19.565-6.811-20.928-9.659-1.734-4.086-2.353-19.318-1.486-40.865,1.115-29.968.991-31.082-6.191-36.779-4.83-3.839-6.811-4.582-11.145-4.458-7.182.248-12.631,2.972-16.718,8.173-2.6,3.467-4.582,9.659-8.3,27.863-2.6,13-5.944,30.092-7.182,38.265l-2.353,14.736,10.9,27.863c5.944,15.355,12.384,31.578,14.24,36.036l3.467,8.049,45.943,34.054c55.354,40.989,86.807,65.508,89.408,69.718,2.848,4.706,1.115,15.355-5.2,32.073-10.154,27.491-10.031,29.472,6.192,60.059,16.594,31.33,17.956,34.8,15.974,40.246-2.353,6.439-9.287,15.479-12.383,16.222-1.981.371-5.82-1.734-15.231-8.173-17.708-12.26-26.748-17.337-30.215-17.089-2.105.124-5.82,2.972-11.764,8.792-16.965,16.594-15.355,15.975-33.682,12.383-27.244-5.325-24.271-6.068-50.772,14.86-12.508,9.907-22.909,17.708-23.4,17.337-.124-.248-5.077-7.678-10.773-16.47" transform="translate(-146.547 -48.789)"/></g></svg>