<svg xmlns="http://www.w3.org/2000/svg" width="770.41" height="992.227" viewBox="0 0 770.41 992.227"><defs><style>.a{fill:#e5e5e4;}</style></defs><path class="a" d="M573.127,1038.872c-1.409,0-2.718-.1-4.128-.2C554.9,1037.462,88.574,972.225,68.74,969.407a11.944,11.944,0,0,1-2.014-.5c-8.054-2.92-14.095-9.966-17.014-19.934-2.92-9.766-2.819-23.659,2.92-31.311.2-.3.5-.6.7-.906l99.971-105c.6-7.048.3-14.6-.1-24.665-.805-19.029-1.812-45,2.316-89.3a10.285,10.285,0,0,1,2.618-5.94c24.766-27.183,71.681-74.2,98.662-93.629a10.179,10.179,0,0,1,13.39,1.308c6.343,6.746,64.835,54.868,76.413,62.521,5.034.2,12.182,9.06,16.008,11.576,36.646,23.76,66.245,37.452,105.71,28.895,40.17-8.759,83.461-16.31,128.664-16.31,14.7,0,35.136-30.6,59.1-55.975,65.137,8.759,114.569,16.611,135.711,21.544a10.248,10.248,0,0,1,7.752,8.154C808,707.648,803.675,740.871,792,788.994a9.693,9.693,0,0,1-1.712,3.725l-15.4,20.538c-45,59.9-120.308,160.177-171.049,213.132C595.981,1034.442,585.108,1038.872,573.127,1038.872Zm90.709-133.7C528.226,879.7,311.269,849.6,157.335,829.466,153.308,835.2,59.68,930.947,59.68,930.947c15.806,3.323,503.481,73.8,515.26,72.386,4.732-.6,10.47-1.813,14.8-4.832,5.839-4.128,54.969-72.487,67.956-85.675ZM176.061,699.695c-6.04,34.532-7.249,78.729-4.832,110.844L688.1,886.147l6.745-115.878-.3.1,93.528-103.293q-66.9-10.57-133.7-18.928c-147.289,94.434-193.7,50.942-314.31,15-2.92-.906-70.473-54.465-73.091-52.552-31.814,22.248-66.346,58.693-90.508,89.1Z" transform="translate(-47.825 -46.645)"/><path class="a" d="M249.9,667.692c-.805,27.081,101.783,55.37,229.239,63.022s231.455-8.054,232.26-35.135c.4-13.994-26.579-28.189-70.272-39.768-44.2,29.6-115.677,42.284-177.592,38.559-70.473-4.229-103.495-32.116-157.961-55.071-34.33,6.444-55.271,16.31-55.674,28.392" transform="translate(-46.459 -46.354)"/><path class="a" d="M594.885,909c-8.255-1.711-405.019-57.384-413.375-59.2-2.316,5.438-43.895,39.466-46.109,44.9,8.356,1.712,413.476,62.822,421.731,64.533,2.316-5.436,35.438-44.8,37.753-50.237" transform="translate(-47.233 -44.931)"/><path class="a" d="M409.174,948.061c-3.725-.706-156.652-22.754-161.182-23.76-4.128,3.927-9.665,9.664-13.591,13.39,8.356,1.711,155.947,23.155,164.3,24.866,2.92-4.631,6.342-9.061,10.47-14.5" transform="translate(-46.564 -44.428)"/><path class="a" d="M465.018,782.3l186.251,25.471.906.3.6.3a2.287,2.287,0,0,1,.4,2.718c-.1.1-.2.4-.3.5s-.2.2-.3.3a2.28,2.28,0,0,1-1.813.5c-82.655-7.349-108.227-11.073-186.25-25.772a1.111,1.111,0,0,1-.806,0,2.8,2.8,0,0,1-1.208-1.208,2.355,2.355,0,0,1-.2-1.208,3.631,3.631,0,0,1,.4-.908,2.558,2.558,0,0,1,1.208-1.106,4.5,4.5,0,0,1,1.107.1" transform="translate(-45.023 -45.388)"/><g transform="translate(107.635 0)"><path class="a" d="M485.924,713.151c-176.183,0-321.458-137.926-330.72-314.109-4.631-88.394,25.37-173.364,84.668-239.106A329.277,329.277,0,0,1,468.809,50.8c183.935-9.665,338.775,131.684,348.238,313.606,4.631,88.393-25.37,173.364-84.668,239.106A328.752,328.752,0,0,1,503.542,712.748C497.6,713.05,491.763,713.151,485.924,713.151Zm.5-641.306c-5.437,0-10.974.1-16.511.4A309.778,309.778,0,0,0,176.647,397.934c8.96,170.142,153.632,302.33,325.687,293.269A309.787,309.787,0,0,0,795.5,365.516C786.945,200.911,651.133,71.844,486.427,71.844Z" transform="translate(-154.737 -50.336)"/><path class="a" d="M445.827,700.594c.5-.7,57.586-26.78,64.231-29.3,7.651-3.02,12.484-7.248,15.6-13.591,3.323-6.846,3.524-13.591.5-19.028-2.417-4.53-13.591-15.5-22.652-22.148-3.021-2.316-12.585-7.451-21.142-11.578-24.465-11.578-28.088-15.4-21.847-23.257,5.336-6.745,25.672-19.43,29.2-18.122,3.021,1.107-5.94.7-1.309-1.51,6.444-3.021-10.672-44.4.7-56.983,11.679-12.988,20.135-21.041,24.364-23.055,4.329-2.114,49.935,36.747,59.5,45.3,13.088,11.678,22.149,14.9,28.29,10.168,3.926-3.02,16.813,2.417,23.86,10.169,4.228,4.63,4.631,9.665,1.208,13.994l-2.517,3.121,21.041,16.712c11.578,9.162,22.854,18.524,25.069,20.638,3.423,3.423,4.933,4.229,10.369,5.336,13.692,2.92,30.605-6.242,31.914-17.317.705-6.443-5.738-13.289-12.987-13.692-4.732-.3-6.141-2.517-4.832-7.651,3.523-13.088,4.027-16.511,2.517-19.33,21.041-40.371-1.611-49.734-3.424-50.338-2.316-.7-33.626,29.1-36.746,32.217a26.765,26.765,0,0,1-17.317,8.054c-6.242.4-9.061-.806-14.2-6.041-4.933-4.933-6.242-6.845-5.135-8.054.4-.5,4.732-1.711,9.565-2.718,5.84-1.208,9.463-2.517,10.571-4.027,1.711-2.215,1.611-6.645-.1-8.054-.705-.5,1.712-4.329,8.859-13.289l9.867-12.585,1.107-5.839-8.154-4.632-49.131-7.349c-12.785,13.591-20.336,24.061-25.169,27.988-3.222,2.517-7.249,2.617-9.262,1.711-3.625-1.51-35.337-26.981-40.875-32.518-2.416-2.517-5.839-6.443-6.241-7.45-1.107-2.416,2.718-11.377,11.073-27.384,3.725-6.947,8.961-14.095,9.968-16.914,2.114-6.343,4.128-7.148,9.766-3.725,19.43,11.779,21.846,12.584,27.082,9.665,8.96-5.135,45.1,3.624,26.478-14.6-4.128-4.027-7.954-8.457-8.759-9.866-1.409-2.617-.2-6.04,3.927-11.276,1.913-2.517,2.718-2.718,6.242-1.812a107.522,107.522,0,0,1,12.987,5.537c23.256,11.376,32.417,13.088,42.183,7.551,4.028-2.215,4.329-4.229,1.711-10.068-1.811-3.826-3.826-5.839-19.229-18.524-21.444-17.618-21.343-17.518-14.6-24.666,2.618-2.919,8.86-9.765,13.793-15.5l8.859-10.269-4.53-3.524c-2.516-1.913-8.859-6.242-14.094-9.464-10.874-6.846-16.511-12.081-17.015-16.309-.4-3.524,6.342-12.786,11.578-15.706,4.128-2.316,7.047-.906,17.215,8.155,8.155,7.249,16.309,11.477,19.33,10.068a13.442,13.442,0,0,0,4.329-3.826c3.02-3.826,4.329-3.322,14.2,5.537,8.155,7.349,8.155,7.349,10.168,5.638,2.114-1.812,17.518-17.819,19.229-20.135.806-1.108-.2-2.718-5.135-7.953-3.423-3.524-5.436-11.779-5.738-12.484-.3-.906-1.209-2.92,5.638-6.544l6.947-8.256,9.362,5.537c1.309,1.309.3,3.926,5.235,8.255,10.37,9.061,12.886,12.383,14.5,19.128,2.316,9.363,6.04,14.4,16.813,22.753,9.967,7.752,19.934,12.786,34.734,17.316l5.638,1.812,2.417,13.591c1.107,6.242,5.738,13.088,6.443,20.135,1.309,14.095.2,26.075,2.315,41.076,1.107,7.45-7.349,18.021-6.141,25.068,2.417,14.3-4.027,50.237-8.657,64.735-8.055,24.867-21.645,49.13-35.338,71.984-3.424,5.739-8.054,17.92-16.712,28.088-10.269,12.283-24.766,22.854-30.605,28.592-12.987,12.987-24.263,28.894-38.358,39.062-15.2,10.974-33.323,16.007-50.64,24.263-10.672,5.134-24.565,16.31-38.861,20.538-24.061,7.249-49.633,8.558-76.212,10.873-11.678,1.006-38.76-.6-52.452-1.007-13.391-.6-21.646,5.134-12.383-1.108" transform="translate(-152.796 -49.054)"/><path class="a" d="M229.069,570.852c-4.631-7.047-8.557-13.591-8.557-14.4-.1-.806,2.819-6.544,6.343-12.585,16.914-28.793,19.934-35.539,22.149-49.432,1.409-9.363,1.208-15.6-.906-21.343-1.51-4.128-2.718-5.235-19.028-18.726l-17.417-14.4-1.007-7.551c-1.41-10.772-.5-14.2,6.947-25.169l6.342-9.363,7.651,1.711c9.162,2.114,13.088.805,16.612-5.436,2.819-4.933,2.718-12.383-.2-16.712-1.108-1.611-10.37-11.678-20.639-22.35-26.881-27.988-26.881-27.787-29.9-37.452-1.51-4.631-2.617-9.363-2.315-10.47.1-1.208,3.725-6.947,7.853-12.786,4.228-5.839,8.054-12.182,8.558-14.2,1.006-3.624.906-3.725-4.229-7.752-2.92-2.215-8.154-6.846-11.779-10.068l-6.443-5.94,1.711-4.128c7.45-17.518,13.39-37.854,23.86-54.264,12.081-18.827,29.6-33.827,53.56-57.788,15.706-15.806,42.686-32.418,61.513-42.989C360.45,79.955,388.439,71.7,421.762,63.142c56.076-14.3,126.852-3.02,185.244,20.639,6.342,2.618,11.175,7.45,11.276,8.054.1,1.007-50.338,57.486-51.848,57.989-.4.2-3.926-.4-7.953-1.309-9.061-2.014-14.4-1.007-19.33,3.725-2.013,2.014-4.43,3.423-5.235,3.423-.8-.1-5.738-3.423-10.772-7.45-7.047-5.436-9.363-7.752-9.363-9.262,0-1.309,1.611-3.725,5.336-7.752,5.336-5.739,5.437-5.839,4.53-9.564s-1.309-4.027-19.229-17.618c-10.47-7.853-19.531-14.095-21.243-14.5-3.423-.906-7.752,1.51-11.879,6.745-4.228,5.437-3.524,10.772,2.316,18.021,6.645,8.155,7.148,11.175,2.718,16.914a70.864,70.864,0,0,0-5.94,9.162c-1.308,2.517-3.222,6.141-4.329,7.953l-2.013,3.322-8.558-3.121c-11.678-4.228-15.5-4.43-24.061-1.51-10.672,3.624-16.511,8.457-19.028,15.6-1.611,4.933.1,7.249,12.987,16.511,13.893,10.068,14.5,11.074,12.383,21.343-2.014,9.665-8.256,18.524-15.6,21.947-8.356,3.926-11.175,4.128-32.317,2.92-20.336-1.108-32.72-1.007-33.827.5-.3.4-8.054,4.43-17.215,9.162-19.632,9.866-24.968,13.692-29.1,20.639-2.819,4.732-2.819,5.537-1.007,17.417,3.624,23.86.805,29.6-13.289,26.881-7.047-1.409-15.907-5.537-17.014-7.853-1.409-3.322-1.913-15.706-1.208-33.223.906-24.364.806-25.27-5.034-29.9-3.926-3.121-5.537-3.725-9.061-3.624-5.839.2-10.269,2.416-13.591,6.645-2.114,2.819-3.725,7.853-6.745,22.652-2.114,10.571-4.832,24.464-5.839,31.109l-1.913,11.98,8.86,22.652c4.832,12.484,10.068,25.672,11.577,29.3l2.819,6.544L295.615,383.9c45,33.324,70.574,53.258,72.688,56.681,2.316,3.826.906,12.484-4.228,26.075-8.255,22.35-8.155,23.961,5.034,48.828,13.49,25.471,14.6,28.29,12.987,32.72-1.913,5.235-7.551,12.584-10.068,13.188-1.611.3-4.732-1.409-12.383-6.645-14.4-9.967-21.746-14.095-24.565-13.893-1.711.1-4.732,2.416-9.564,7.148-13.793,13.491-12.484,12.987-27.384,10.068-22.149-4.329-19.733-4.933-41.277,12.081-10.169,8.054-18.625,14.4-19.028,14.095-.1-.2-4.128-6.242-8.759-13.39" transform="translate(-154.505 -50.292)"/></g></svg>