<?xml version="1.0" standalone="no"?>
<!DOCTYPE svg PUBLIC "-//W3C//DTD SVG 20010904//EN"
 "http://www.w3.org/TR/2001/REC-SVG-20010904/DTD/svg10.dtd">
<svg version="1.0" xmlns="http://www.w3.org/2000/svg"
 width="225.000000pt" height="225.000000pt" viewBox="0 0 225.000000 225.000000"
 preserveAspectRatio="xMidYMid meet">

<g transform="translate(0.000000,225.000000) scale(0.100000,-0.100000)"
fill="#000000" stroke="none">
<path d="M1020 2240 c-441 -44 -804 -329 -953 -747 -80 -222 -80 -515 0 -736
117 -328 364 -574 690 -690 221 -80 515 -80 736 0 382 136 658 457 733 850 22
114 22 302 0 416 -75 393 -352 714 -733 850 -134 48 -328 72 -473 57z m237
-832 c59 -28 122 -90 147 -145 l18 -41 32 35 c99 114 273 87 337 -52 76 -163
-102 -341 -266 -266 -22 10 -54 34 -71 54 l-32 35 -18 -41 c-25 -56 -87 -117
-149 -147 -73 -35 -180 -34 -256 1 -64 30 -129 93 -154 149 l-17 38 -32 -35
c-99 -114 -273 -87 -337 52 -76 163 102 341 266 266 22 -10 54 -34 71 -54 l32
-35 17 38 c67 149 262 219 412 148z"/>
<path d="M1045 1294 c-126 -66 -142 -234 -30 -320 65 -49 170 -45 232 9 44 38
63 82 63 141 0 111 -75 186 -187 186 -26 0 -61 -7 -78 -16z"/>
<path d="M590 1180 c-12 -12 -20 -33 -20 -55 0 -45 29 -75 73 -75 51 0 77 24
77 71 0 50 -27 79 -75 79 -22 0 -43 -8 -55 -20z"/>
<path d="M1550 1182 c-16 -13 -22 -29 -22 -57 0 -48 28 -75 78 -75 45 0 74 30
74 75 0 45 -29 75 -74 75 -19 0 -44 -8 -56 -18z"/>
</g>
</svg>
